<?xml version="1.0" encoding="UTF-8"?>
<svg version="1.1" xmlns="http://www.w3.org/2000/svg" width="105" height="82">
<path d="M0 0 C34.65 0 69.3 0 105 0 C105 27.06 105 54.12 105 82 C70.35 82 35.7 82 0 82 C0 54.94 0 27.88 0 0 Z " fill="#FCF7E6" transform="translate(0,0)"/>
<path d="M0 0 C0.55042969 0.27585937 1.10085937 0.55171875 1.66796875 0.8359375 C2.82232422 1.41214844 2.82232422 1.41214844 4 2 C5.23169922 2.63808594 5.23169922 2.63808594 6.48828125 3.2890625 C15.02354055 7.32648806 24.42956661 9.27814134 33.625 6.08984375 C35.4638673 5.1467482 37.23995744 4.08310311 39 3 C39.99 3 40.98 3 42 3 C42 2.34 42 1.68 42 1 C44.16874252 1.50603992 45.99967627 1.99983813 48 3 C49.17600832 6.22477753 49.10299956 9.34803656 49.0625 12.75 C49.05347656 13.73484375 49.04445312 14.7196875 49.03515625 15.734375 C49.02355469 16.48203125 49.01195312 17.2296875 49 18 C46.03 18.33 43.06 18.66 40 19 C40.495 20.98 40.495 20.98 41 23 C43.31 23.66 45.62 24.32 48 25 C48 26.32 48 27.64 48 29 C47.34 29 46.68 29 46 29 C45.9071875 29.8353125 45.9071875 29.8353125 45.8125 30.6875 C44.6519231 33.99068042 42.59786554 35.71894733 40 38 C39.34 38 38.68 38 38 38 C37.7834375 38.63550781 37.566875 39.27101562 37.34375 39.92578125 C36 42 36 42 33.46875 42.79296875 C32.4890625 42.92316406 31.509375 43.05335937 30.5 43.1875 C26.61675793 43.66461643 26.61675793 43.66461643 23 45 C13.03269874 44.92026159 7.6250671 40.95984466 0.7578125 34.05859375 C-1 32 -1 32 -1 30 C-1.66 30 -2.32 30 -3 30 C-3 28.68 -3 27.36 -3 26 C-1.75336669 25.49166409 -0.50250613 24.99368855 0.75 24.5 C1.44609375 24.2215625 2.1421875 23.943125 2.859375 23.65625 C5 23 5 23 9 23 C8.67 21.68 8.34 20.36 8 19 C4.28743521 18.7937464 2.26090219 19.31695371 -1 21 C-2.32 21 -3.64 21 -5 21 C-5.27952878 13.28189975 -5.38924732 6.12414468 0 0 Z " fill="#FCF7E6" transform="translate(39,28)"/>
<path d="M0 0 C11.8010083 -0.28456332 20.17892844 1.41439592 29.37890625 9.12109375 C30.260625 9.85005859 30.260625 9.85005859 31.16015625 10.59375 C32.37890625 12.12109375 32.37890625 12.12109375 32.37890625 16.12109375 C27.99307831 15.72238212 25.54284413 13.94284863 22.1328125 11.39453125 C11.98459984 4.02634121 -0.83232467 5.71647446 -12.62109375 7.12109375 C-12.62109375 7.78109375 -12.62109375 8.44109375 -12.62109375 9.12109375 C-13.50861328 9.43240234 -13.50861328 9.43240234 -14.4140625 9.75 C-22.94793954 13.07723754 -25.83505769 18.00815933 -29.62109375 26.12109375 C-29.97300781 26.66765625 -30.32492188 27.21421875 -30.6875 27.77734375 C-32.07883355 31.27023132 -31.9094825 34.73227851 -31.87109375 38.43359375 C-31.87882812 39.16771484 -31.8865625 39.90183594 -31.89453125 40.65820312 C-31.87732021 45.50741398 -31.15293559 49.51948949 -29.62109375 54.12109375 C-28.96109375 54.12109375 -28.30109375 54.12109375 -27.62109375 54.12109375 C-27.62109375 54.78109375 -27.62109375 55.44109375 -27.62109375 56.12109375 C-26.96109375 56.12109375 -26.30109375 56.12109375 -25.62109375 56.12109375 C-25.29109375 57.00796875 -24.96109375 57.89484375 -24.62109375 58.80859375 C-21.43229473 64.09004213 -17.378018 66.32058508 -11.5 68.02734375 C-9.39434764 68.53290254 -7.28097666 69.0077255 -5.16015625 69.4453125 C-2.62109375 70.12109375 -2.62109375 70.12109375 -0.62109375 72.12109375 C-0.99609375 74.24609375 -0.99609375 74.24609375 -1.62109375 76.12109375 C-13.71178662 75.87250006 -20.30253429 71.9256489 -28.67578125 63.40234375 C-33.62109375 57.60302146 -33.62109375 57.60302146 -33.62109375 54.12109375 C-34.61109375 53.79109375 -35.60109375 53.46109375 -36.62109375 53.12109375 C-40.16338621 41.93490705 -40.03295856 29.67207686 -34.62109375 19.12109375 C-31.02409157 14.21729077 -27.33102699 9.53483826 -21.62109375 7.12109375 C-21.62109375 6.46109375 -21.62109375 5.80109375 -21.62109375 5.12109375 C-14.24162752 1.80880724 -8.01958697 0.37050253 0 0 Z " fill="#A59762" transform="translate(45.62109375,5.87890625)"/>
<path d="M0 0 C2.96181908 1.25877311 5.04649093 2.9963871 7.5 5.0625 C8.49 5.3925 9.48 5.7225 10.5 6.0625 C10.5 6.7225 10.5 7.3825 10.5 8.0625 C13.33392926 8.14424796 16.16544819 8.20334985 19 8.25 C19.79148438 8.27513672 20.58296875 8.30027344 21.3984375 8.32617188 C27.16605966 8.39708526 31.17155609 7.23144993 36.5 5.0625 C37.82 5.0625 39.14 5.0625 40.5 5.0625 C40.5 6.7125 40.5 8.3625 40.5 10.0625 C31.96872968 15.02872804 24.30244723 16.37496155 14.5 15.0625 C10.2726367 13.77343854 6.41887112 12.09268441 2.5 10.0625 C1.34564453 9.48628906 1.34564453 9.48628906 0.16796875 8.8984375 C-0.65767578 8.48464844 -0.65767578 8.48464844 -1.5 8.0625 C-4.4080296 12.16561026 -5.17633459 15.97437749 -5.6875 20.875 C-5.76935547 21.56787109 -5.85121094 22.26074219 -5.93554688 22.97460938 C-6.13424293 24.66936984 -6.31859203 26.36580194 -6.5 28.0625 C-5.283125 27.5675 -4.06625 27.0725 -2.8125 26.5625 C0.42486738 25.33770559 3.00099357 24.73446815 6.5 25.0625 C6.83 26.7125 7.16 28.3625 7.5 30.0625 C3.54 31.0525 -0.42 32.0425 -4.5 33.0625 C-4.5 34.3825 -4.5 35.7025 -4.5 37.0625 C-3.84 37.0625 -3.18 37.0625 -2.5 37.0625 C-0.87890625 38.70703125 -0.87890625 38.70703125 0.9375 40.875 C6.71006211 47.71978747 10.34848536 49.98585122 19.5 51.0625 C20.0625 53 20.0625 53 20.5 55.0625 C20.17 55.3925 19.84 55.7225 19.5 56.0625 C11.42316895 55.80609267 4.53270247 53.7334906 -1.546875 48.19921875 C-4.40273383 45.05655359 -6.71582813 41.84921692 -8.75 38.125 C-10.20378292 34.79079744 -10.20378292 34.79079744 -13.5 34.0625 C-13.34144531 33.53785156 -13.18289062 33.01320312 -13.01953125 32.47265625 C-12.37189104 29.46819002 -12.30759193 26.57092219 -12.1875 23.5 C-11.66143247 15.73038727 -10.33138731 7.8791999 -5.0625 1.8125 C-2.5 0.0625 -2.5 0.0625 0 0 Z " fill="#A79965" transform="translate(40.5,20.9375)"/>
<path d="M0 0 C2.86011611 0.31779068 4.72774802 0.81582954 7.125 2.4375 C12.07866061 9.20750284 12.5515543 17.86612291 13 26 C14.65 26.33 16.3 26.66 18 27 C17.67 28.32 17.34 29.64 17 31 C14.03 31.495 14.03 31.495 11 32 C10.814375 32.969375 10.62875 33.93875 10.4375 34.9375 C8.06939609 43.06141203 1.9652637 48.53235152 -4.984375 52.90625 C-8.32754582 54.7203737 -10.95166796 55.11664249 -14.6875 55.0625 C-15.89986328 55.04896484 -15.89986328 55.04896484 -17.13671875 55.03515625 C-17.75160156 55.02355469 -18.36648437 55.01195312 -19 55 C-18.67 53.35 -18.34 51.7 -18 50 C-17.25234375 49.90203125 -16.5046875 49.8040625 -15.734375 49.703125 C-8.40791553 48.73190784 -8.40791553 48.73190784 -3 44 C-2.34 44 -1.68 44 -1 44 C-0.71125 43.4225 -0.4225 42.845 -0.125 42.25 C0.91666667 40.16666667 1.95833333 38.08333333 3 36 C3.66 36 4.32 36 5 36 C5 34.68 5 33.36 5 32 C3.88625 31.87625 2.7725 31.7525 1.625 31.625 C-2 31 -2 31 -4 29 C-3.67 27.68 -3.34 26.36 -3 25 C-0.03 25 2.94 25 6 25 C5.71657321 22.60293301 5.42356312 20.20768917 5.125 17.8125 C5.04636719 17.13896484 4.96773437 16.46542969 4.88671875 15.77148438 C4.39528587 11.89672516 3.64019099 8.54915277 2 5 C1.34 5 0.68 5 0 5 C0 3.35 0 1.7 0 0 Z " fill="#A3955F" transform="translate(82,21)"/>
<path d="M0 0 C0.88171875 0.72896484 0.88171875 0.72896484 1.78125 1.47265625 C3 3 3 3 3 7 C-1.38582794 6.60128837 -3.83606212 4.82175488 -7.24609375 2.2734375 C-17.39430641 -5.09475254 -30.21123092 -3.40461929 -42 -2 C-42 -1.34 -42 -0.68 -42 0 C-45.3 1.32 -48.6 2.64 -52 4 C-51 -0 -51 -0 -49 -3 C-48.34 -3 -47.68 -3 -47 -3 C-47 -3.66 -47 -4.32 -47 -5 C-32.78329353 -13.38421151 -12.16266704 -10.1885028 0 0 Z " fill="#B0A375" transform="translate(75,15)"/>
<path d="M0 0 C1.69774938 1.29352333 3.36739286 2.62517293 5 4 C5.99 4.33 6.98 4.66 8 5 C8 5.66 8 6.32 8 7 C10.83392926 7.08174796 13.66544819 7.14084985 16.5 7.1875 C17.29148437 7.21263672 18.08296875 7.23777344 18.8984375 7.26367188 C24.66605966 7.33458526 28.67155609 6.16894993 34 4 C35.32 4 36.64 4 38 4 C38 5.65 38 7.3 38 9 C29.46249865 13.96985525 21.80787136 15.30020842 12 14 C1.26497278 10.89745917 1.26497278 10.89745917 -2 6 C0.475 6.99 0.475 6.99 3 8 C2.72382467 6.05925139 2.72382467 6.05925139 2 4 C-1.24209364 1.83860424 -2.25677768 1.71205982 -6 2 C-6.99 2.495 -6.99 2.495 -8 3 C-7.67 2.01 -7.34 1.02 -7 0 C-4.22339666 -1.38830167 -2.95033814 -0.89196269 0 0 Z " fill="#C2B68C" transform="translate(43,22)"/>
<path d="M0 0 C0 0.66 0 1.32 0 2 C-0.66 2 -1.32 2 -2 2 C-3.39602742 4.57728139 -4.44917527 7.18579587 -5.4375 9.9375 C-7.08743218 14.4088162 -9.41972273 18.12461029 -12.05078125 22.09375 C-14.44790727 26.30699717 -14.66008316 30.16782027 -14.75 34.9375 C-14.77964844 35.71673828 -14.80929688 36.49597656 -14.83984375 37.29882812 C-14.90977701 39.19868177 -14.95724051 41.0993406 -15 43 C-17.37590142 39.29583874 -17.20500286 36.07015427 -17.125 31.75 C-17.10695313 30.48671875 -17.08890625 29.2234375 -17.0703125 27.921875 C-17.03550781 26.47554687 -17.03550781 26.47554687 -17 25 C-18.8855253 26.8855253 -18.13246689 29.57768831 -18.13671875 32.08203125 C-18.13285156 32.87996094 -18.12898438 33.67789063 -18.125 34.5 C-18.12886719 35.29792969 -18.13273437 36.09585938 -18.13671875 36.91796875 C-18.5089961 40.7683932 -18.5089961 40.7683932 -17 44 C-16.95919217 45.99958364 -16.95745644 48.00045254 -17 50 C-17.66 49.67 -18.32 49.34 -19 49 C-22.391999 37.69333666 -22.46723173 25.65892658 -17 15 C-13.40299782 10.09619702 -9.70993324 5.41374451 -4 3 C-4 2.34 -4 1.68 -4 1 C-2 0 -2 0 0 0 Z " fill="#AC9E6D" transform="translate(28,10)"/>
<path d="M0 0 C2.87328071 0.31925341 4.75877438 0.84148031 7.1875 2.4375 C9.90088577 6.27366608 10.33458524 10.41214035 11 15 C10.01 14.67 9.02 14.34 8 14 C8.16371094 14.56203125 8.32742187 15.1240625 8.49609375 15.703125 C9.02864997 18.13059056 9.09898681 20.26889681 9.0625 22.75 C9.05347656 23.54921875 9.04445313 24.3484375 9.03515625 25.171875 C9.02355469 25.77515625 9.01195313 26.3784375 9 27 C7.741875 27.020625 6.48375 27.04125 5.1875 27.0625 C4.47980469 27.07410156 3.77210937 27.08570312 3.04296875 27.09765625 C1 27 1 27 -2 26 C-2.33 27.32 -2.66 28.64 -3 30 C-3.5625 28.0625 -3.5625 28.0625 -4 26 C-3 25 -3 25 -0.93359375 24.90234375 C0.30197266 24.91974609 0.30197266 24.91974609 1.5625 24.9375 C2.38878906 24.94652344 3.21507813 24.95554687 4.06640625 24.96484375 C5.02353516 24.98224609 5.02353516 24.98224609 6 25 C5.71657321 22.60293301 5.42356312 20.20768917 5.125 17.8125 C5.04636719 17.13896484 4.96773437 16.46542969 4.88671875 15.77148438 C4.39528587 11.89672516 3.64019099 8.54915277 2 5 C1.34 5 0.68 5 0 5 C0 3.35 0 1.7 0 0 Z " fill="#B6A97A" transform="translate(82,21)"/>
<path d="M0 0 C1.73017508 0.45451184 3.45909877 0.91378857 5.1875 1.375 C6.15042969 1.63023438 7.11335938 1.88546875 8.10546875 2.1484375 C10.83952636 2.95278913 13.41895416 3.78999099 16 5 C16.875 7.0625 16.875 7.0625 17 9 C16 10 16 10 13.8125 10.0546875 C6.91883021 9.6142586 1.56446888 8.23144227 -4 4 C-4.66 3.01 -5.32 2.02 -6 1 C-4 2 -2 3 0 4 C0 2.68 0 1.36 0 0 Z " fill="#ADA06D" transform="translate(28,72)"/>
<path d="M0 0 C-0.33 1.32 -0.66 2.64 -1 4 C-3.31 4.33 -5.62 4.66 -8 5 C-8 5.66 -8 6.32 -8 7 C-13.87846936 9.70733176 -20.87542784 10.31894821 -27.11328125 8.32421875 C-28.75 7.5 -28.75 7.5 -31 6 C-31 5.34 -31 4.68 -31 4 C-30.43079834 4.02094727 -29.86159668 4.04189453 -29.27514648 4.06347656 C-26.66278184 4.14730994 -24.05070116 4.19886818 -21.4375 4.25 C-20.09461914 4.30027344 -20.09461914 4.30027344 -18.72460938 4.3515625 C-11.41794072 4.45861992 -6.6775376 0 0 0 Z " fill="#9C8E55" transform="translate(81,26)"/>
<path d="M0 0 C0 0.66 0 1.32 0 2 C1.65 2 3.3 2 5 2 C5.33 2.99 5.66 3.98 6 5 C5.44957031 4.9278125 4.89914063 4.855625 4.33203125 4.78125 C-5.75042881 3.65576609 -15.87104768 3.90831613 -26 4 C-23.375 0.09375 -23.375 0.09375 -20 -0.75 C-13.30872377 -1.34794383 -6.56846523 -1.49391087 0 0 Z " fill="#968851" transform="translate(59,7)"/>
<path d="M0 0 C2.64 0.33 5.28 0.66 8 1 C8.33 2.65 8.66 4.3 9 6 C9.99 6 10.98 6 12 6 C10.52848475 10.85600034 7.64952252 14.54549014 4 18 C3.01 18.33 2.02 18.66 1 19 C1 16 1 16 2 14 C2 13.01 2 12.02 2 11 C3.375 8.3125 3.375 8.3125 5 6 C5.66 6 6.32 6 7 6 C7 4.68 7 3.36 7 2 C4.69 1.67 2.38 1.34 0 1 C0 0.67 0 0.34 0 0 Z " fill="#B1A374" transform="translate(80,51)"/>
<path d="M0 0 C0.33 0 0.66 0 1 0 C1 6.93 1 13.86 1 21 C1.66 21 2.32 21 3 21 C3 22.65 3 24.3 3 26 C2.01 26 1.02 26 0 26 C-2.2828729 21.44331322 -2.30125057 17.41307575 -2.25 12.4375 C-2.25773438 11.68275391 -2.26546875 10.92800781 -2.2734375 10.15039062 C-2.2598568 6.29686833 -2.18014902 3.26157215 0 0 Z " fill="#9A8C53" transform="translate(11,32)"/>
<path d="M0 0 C2.86207152 1.28299758 5.0245088 2.530636 7 5 C7 5.99 7 6.98 7 8 C7.66 8 8.32 8 9 8 C9 9.65 9 11.3 9 13 C9.66 13 10.32 13 11 13 C11.66 14.65 12.32 16.3 13 18 C10.525 17.01 10.525 17.01 8 16 C8 15.01 8 14.02 8 13 C6.02 13.33 4.04 13.66 2 14 C2.66 12.68 3.32 11.36 4 10 C3.01 9.67 2.02 9.34 1 9 C2.32 9 3.64 9 5 9 C3.7508258 5.54074837 2.32472205 2.85306797 0 0 Z " fill="#EAE3CA" transform="translate(73,13)"/>
<path d="M0 0 C0.66 0.33 1.32 0.66 2 1 C1.34 1.66 0.68 2.32 0 3 C0.33 3.99 0.66 4.98 1 6 C0.34 6 -0.32 6 -1 6 C-1 6.66 -1 7.32 -1 8 C-4.3 9.32 -7.6 10.64 -11 12 C-10 8 -10 8 -8 5 C-7.34 5 -6.68 5 -6 5 C-6 4.34 -6 3.68 -6 3 C-4.03533587 1.93224776 -2.03144641 0.93446535 0 0 Z " fill="#B0A273" transform="translate(34,7)"/>
<path d="M0 0 C0.67289063 -0.01611328 1.34578125 -0.03222656 2.0390625 -0.04882812 C7.13295027 -0.05374501 10.52623353 1.10474285 15 3.3125 C12.46102243 4.58198879 10.8962715 4.00792009 8.17578125 3.57421875 C0.14784902 2.60856083 -8.00053281 3.44602 -16 4.3125 C-15 2.3125 -15 2.3125 -11.9375 1.20703125 C-7.97674288 0.17743648 -4.07745242 -0.01952803 0 0 Z " fill="#DDD3B7" transform="translate(48,3.6875)"/>
<path d="M0 0 C0.33 1.65 0.66 3.3 1 5 C-1.64 5.66 -4.28 6.32 -7 7 C-6.67 6.01 -6.34 5.02 -6 4 C-8.31 4 -10.62 4 -13 4 C-11.66666667 3.33333333 -10.33333333 2.66666667 -9 2 C-8.360625 1.62875 -7.72125 1.2575 -7.0625 0.875 C-4.58890178 -0.17440531 -2.66046462 -0.14780359 0 0 Z " fill="#AB9C69" transform="translate(47,46)"/>
<path d="M0 0 C0.33 0 0.66 0 1 0 C1.03758423 0.90093384 1.03758423 0.90093384 1.07592773 1.82006836 C1.1915528 4.52611437 1.31442936 7.23178283 1.4375 9.9375 C1.47681641 10.88302734 1.51613281 11.82855469 1.55664062 12.80273438 C1.59853516 13.70185547 1.64042969 14.60097656 1.68359375 15.52734375 C1.72025146 16.35999756 1.75690918 17.19265137 1.79467773 18.05053711 C1.79367103 20.00338858 1.79367103 20.00338858 3 21 C3.04080783 22.99958364 3.04254356 25.00045254 3 27 C2.34 26.67 1.68 26.34 1 26 C-1.44721961 17.84260131 -2.50490911 8.27621971 0 0 Z " fill="#BBAE83" transform="translate(8,33)"/>
<path d="M0 0 C3.80097811 0.54299687 5.57457897 2.07276772 8 5 C8.9375 7.0625 8.9375 7.0625 9 9 C7.5625 10.75 7.5625 10.75 6 12 C2 6.25 2 6.25 2 4 C1.34 4 0.68 4 0 4 C0 2.68 0 1.36 0 0 Z " fill="#A1925B" transform="translate(82,22)"/>
<path d="M0 0 C6.39431616 0.35523979 6.39431616 0.35523979 8.9375 3.0625 C9.288125 3.701875 9.63875 4.34125 10 5 C9.67 5.66 9.34 6.32 9 7 C7.88625 6.5359375 7.88625 6.5359375 6.75 6.0625 C3.44445309 4.75003506 3.44445309 4.75003506 0 4 C-0.99 4.66 -1.98 5.32 -3 6 C-1.125 1.125 -1.125 1.125 0 0 Z " fill="#9D8F56" transform="translate(37,23)"/>
<path d="M0 0 C3.9129896 0.54599855 7.50314454 1.10170704 11 3 C11.875 5.0625 11.875 5.0625 12 7 C11.67 7.33 11.34 7.66 11 8 C9.1849043 7.96212481 7.37113915 7.84507974 5.5625 7.6875 C4.57378906 7.60886719 3.58507813 7.53023438 2.56640625 7.44921875 C0 7 0 7 -2 5 C0.97 5 3.94 5 7 5 C6.21625 4.54625 5.4325 4.0925 4.625 3.625 C2 2 2 2 0 0 Z " fill="#C2B68C" transform="translate(33,74)"/>
<path d="M0 0 C0.66 0.33 1.32 0.66 2 1 C2.4140625 4.16015625 2.4140625 4.16015625 2.625 8.0625 C2.69976562 9.35285156 2.77453125 10.64320312 2.8515625 11.97265625 C2.90054688 12.97167969 2.94953125 13.97070312 3 15 C-3.625 15.125 -3.625 15.125 -7 14 C-7.33 15.32 -7.66 16.64 -8 18 C-8.5625 16.0625 -8.5625 16.0625 -9 14 C-8 13 -8 13 -5.93359375 12.90234375 C-2.46679688 12.95117188 -2.46679688 12.95117188 1 13 C0.67 8.71 0.34 4.42 0 0 Z " fill="#D5CBA9" transform="translate(87,33)"/>
<path d="M0 0 C0.66 0 1.32 0 2 0 C3.90608098 3.21182149 4.22266247 5.53882603 4.125 9.25 C4.10695313 10.14203125 4.08890625 11.0340625 4.0703125 11.953125 C4.03550781 12.96632813 4.03550781 12.96632813 4 14 C5.32 14.33 6.64 14.66 8 15 C8 15.33 8 15.66 8 16 C6.33388095 16.042721 4.66617115 16.04063832 3 16 C1.29910781 14.29910781 1.67252736 12.01353847 1.5 9.6875 C1.24991284 6.34258426 0.92061163 3.22981248 0 0 Z " fill="#DBD2B2" transform="translate(92,32)"/>
<path d="M0 0 C-0.33 1.32 -0.66 2.64 -1 4 C-8.75 5.125 -8.75 5.125 -11 4 C-4.5 0 -4.5 0 0 0 Z " fill="#A2945E" transform="translate(81,26)"/>
<path d="M0 0 C0.99 0.33 1.98 0.66 3 1 C3 1.66 3 2.32 3 3 C1.25 4.2890625 1.25 4.2890625 -1 5.625 C-1.7425 6.07101563 -2.485 6.51703125 -3.25 6.9765625 C-3.8275 7.31429688 -4.405 7.65203125 -5 8 C-4.24432948 4.21369298 -2.87402727 2.5958956 0 0 Z " fill="#9A8C54" transform="translate(28,11)"/>
<path d="M0 0 C0 3.72207387 -1.17964568 5.46395589 -3 8.6875 C-3.8353125 10.17830078 -3.8353125 10.17830078 -4.6875 11.69921875 C-5.3371875 12.83810547 -5.3371875 12.83810547 -6 14 C-6.93423645 10.98968256 -7.04449911 10.13349732 -6 7 C-5.34 7 -4.68 7 -4 7 C-3.71125 6.21625 -3.4225 5.4325 -3.125 4.625 C-2 2 -2 2 0 0 Z " fill="#D2C8A5" transform="translate(20,22)"/>
<path d="M0 0 C0.33 1.32 0.66 2.64 1 4 C1.66 4 2.32 4 3 4 C3.66 5.65 4.32 7.3 5 9 C2.525 8.01 2.525 8.01 0 7 C0 6.01 0 5.02 0 4 C-1.98 4.33 -3.96 4.66 -6 5 C-5.67 4.34 -5.34 3.68 -5 3 C-3.35 3 -1.7 3 0 3 C0 2.01 0 1.02 0 0 Z " fill="#D5CAA9" transform="translate(81,22)"/>
<path d="M0 0 C5.445 1.485 5.445 1.485 11 3 C11 3.33 11 3.66 11 4 C2.42857143 4.14285714 2.42857143 4.14285714 -1 3 C-0.67 2.01 -0.34 1.02 0 0 Z " fill="#998B51" transform="translate(49,71)"/>
<path d="M0 0 C1.65 0 3.3 0 5 0 C5.33 0.99 5.66 1.98 6 3 C6.99 3.33 7.98 3.66 9 4 C8.67 4.66 8.34 5.32 8 6 C5.9375 6.625 5.9375 6.625 4 7 C4 5.02 4 3.04 4 1 C2.68 0.67 1.36 0.34 0 0 Z " fill="#A39561" transform="translate(84,51)"/>
<path d="M0 0 C0.66 0.33 1.32 0.66 2 1 C1.505 1.61875 1.01 2.2375 0.5 2.875 C-1.19222773 4.83880904 -1.19222773 4.83880904 -1 7 C-2.98 7.99 -2.98 7.99 -5 9 C-4.50769231 3.46153846 -4.50769231 3.46153846 -1.9375 1.125 C-1.298125 0.75375 -0.65875 0.3825 0 0 Z " fill="#9E9059" transform="translate(82,64)"/>
<path d="M0 0 C3.85645121 -0.22036864 6.49223216 0.39644899 10 2 C10 2.33 10 2.66 10 3 C7.03 3 4.06 3 1 3 C0.67 2.01 0.34 1.02 0 0 Z " fill="#97894F" transform="translate(34,77)"/>
<path d="M0 0 C0.33 0.66 0.66 1.32 1 2 C-1.67478244 3.6627026 -3.9995144 4.99983813 -7 6 C-6.875 4.125 -6.875 4.125 -6 2 C-2.9375 0.75 -2.9375 0.75 0 0 Z " fill="#E3DABE" transform="translate(99,51)"/>
<path d="M0 0 C1.65 0 3.3 0 5 0 C5.33 1.65 5.66 3.3 6 5 C5.34 5 4.68 5 4 5 C4 4.01 4 3.02 4 2 C2.35 2 0.7 2 -1 2 C-0.67 1.34 -0.34 0.68 0 0 Z " fill="#C7BA93" transform="translate(42,46)"/>
</svg>
