<?xml version="1.0" encoding="UTF-8"?>
<svg version="1.1" xmlns="http://www.w3.org/2000/svg" width="377" height="247">
<path d="M0 0 C0.9178125 0.44085938 1.835625 0.88171875 2.78125 1.3359375 C22.18777346 11.20273735 35.99444018 28.06067129 42.9921875 48.515625 C43.32476562 49.66546875 43.65734375 50.8153125 44 52 C44.18546387 52.63744141 44.37092773 53.27488281 44.56201172 53.93164062 C46.36507875 60.89942508 46.3843063 67.83601146 46.375 75 C46.37338867 76.28422852 46.37177734 77.56845703 46.37011719 78.89160156 C46.24275602 88.79830265 45.13019409 97.62036247 42 107 C41.73445312 107.95003906 41.46890625 108.90007812 41.1953125 109.87890625 C40.13998579 113.00970881 39.1896445 115.32732746 36.23535156 116.99780273 C35.13658691 117.39914429 35.13658691 117.39914429 34.015625 117.80859375 C32.67153564 118.30879028 32.67153564 118.30879028 31.30029297 118.8190918 C30.21119629 119.2087915 29.12209961 119.59849121 28 120 C26.63786706 120.49889247 25.27607413 120.99871386 23.91455078 121.49926758 C13.08009539 125.46662027 2.20354417 129.31938675 -8.67156982 133.17358398 C-10.8135007 133.9338069 -12.95408628 134.69767742 -15.09423828 135.46289062 C-18.45315032 136.65856472 -21.81820436 137.83397255 -25.1875 139 C-26.14672363 139.34385742 -27.10594727 139.68771484 -28.09423828 140.04199219 C-28.96419434 140.33750977 -29.83415039 140.63302734 -30.73046875 140.9375 C-31.83491333 141.32228516 -31.83491333 141.32228516 -32.96166992 141.71484375 C-35.60083785 142.08405541 -36.77624781 141.39959324 -39 140 C-43.46533936 136.14877491 -47.26658185 131.58243067 -51.09765625 127.1171875 C-53.94258295 123.95096518 -57.0077476 121.0201245 -60.08203125 118.078125 C-61.91085317 116.09659086 -62.86438459 114.41298587 -64 112 C-57.47196487 111.77064301 -50.94497775 111.61372315 -44.41381836 111.50561523 C-42.19532451 111.46052455 -39.97709561 111.39923125 -37.75952148 111.32104492 C-18.25698717 110.65096009 -18.25698717 110.65096009 -13.48779297 114.04345703 C-11.2745105 116.2567395 -9.55869165 118.29440412 -8 121 C-3.79278056 117.20324099 -1.3399973 113.45114068 1.125 108.375 C1.62580078 107.40240234 1.62580078 107.40240234 2.13671875 106.41015625 C6.74052459 97.11227387 8.54752981 87.95994331 8.4375 77.625 C8.42992676 76.62057861 8.42235352 75.61615723 8.41455078 74.58129883 C8.11002576 60.82099121 3.80851572 49.29242421 -5.375 38.875 C-9.14631917 35.29987662 -13.34066661 32.96340307 -17.9375 30.625 C-18.59347168 30.29097168 -19.24944336 29.95694336 -19.92529297 29.61279297 C-34.73090274 22.50800172 -54.13348219 22.77593053 -69.58203125 27.6796875 C-89.74448209 35.46815422 -104.22885725 48.13389216 -113.26953125 67.8203125 C-119.742261 82.87072476 -121.59013696 99.34341341 -116 115 C-110.88277435 127.42090227 -104.09028715 135.87715535 -92 142 C-81.69067808 145.96512382 -72.02153146 147.15988032 -61.0625 147.0625 C-59.6074707 147.05573242 -59.6074707 147.05573242 -58.12304688 147.04882812 C-55.7486324 147.0371315 -53.37434979 147.02074086 -51 147 C-54.25386345 149.1692423 -57.50993868 150.36871812 -61.16796875 151.64453125 C-62.23667961 152.02202766 -62.23667961 152.02202766 -63.32698059 152.40715027 C-64.84187261 152.94116953 -66.35749377 153.47312421 -67.8737793 154.00317383 C-70.13582738 154.79442522 -72.39521439 155.5929051 -74.65429688 156.39257812 C-83.22173446 159.41065206 -91.81952473 162.2383289 -100.52197266 164.84301758 C-103.89152151 165.96391411 -106.99011493 167.33888185 -110.1875 168.875 C-114.04625191 170.1664793 -115.44886602 170.23306991 -119.2421875 168.62890625 C-122.76214335 166.30573539 -125.87662388 163.82083239 -129 161 C-129.5048291 160.55575684 -130.0096582 160.11151367 -130.52978516 159.65380859 C-137.34292172 153.57312329 -142.63142856 147.0033146 -147 139 C-147.46019531 138.16210938 -147.92039063 137.32421875 -148.39453125 136.4609375 C-158.48294821 116.28410357 -159.20483726 90.44948051 -153 69 C-152.7215625 67.98679687 -152.443125 66.97359375 -152.15625 65.9296875 C-144.21981912 39.72578208 -126.02728245 17.98333236 -102.15234375 4.84765625 C-71.58484567 -11.37335666 -31.71333597 -15.9499425 0 0 Z " fill="#9E1738" transform="translate(160,33)"/>
<path d="M0 0 C12.21 0 24.42 0 37 0 C35.875 13.5 35.875 13.5 35.15209961 18.77832031 C34.90864807 20.57293701 34.90864807 20.57293701 34.66027832 22.40380859 C34.40885071 24.22259521 34.40885071 24.22259521 34.15234375 26.078125 C33.91795593 27.79974854 33.91795593 27.79974854 33.67883301 29.55615234 C33.10178923 33.78789999 32.51933813 38.01890888 31.9375 42.25 C30.638125 51.7375 29.33875 61.225 28 71 C48.79 71 69.58 71 91 71 C91.63808594 66.20984375 92.27617187 61.4196875 92.93359375 56.484375 C93.33894166 53.44918474 93.74442384 50.41401364 94.15039062 47.37890625 C94.79469105 42.56186054 95.43849435 37.74475204 96.0793457 32.92724609 C96.59606403 29.04313015 97.11500456 25.159317 97.6354847 21.27570343 C97.83363009 19.79425872 98.03097563 18.3127068 98.22750664 16.83104706 C98.50298622 14.75523896 98.78131152 12.67983082 99.06030273 10.60449219 C99.21796616 9.42312683 99.37562958 8.24176147 99.53807068 7.02459717 C100 4 100 4 101 0 C113.21 0 125.42 0 138 0 C137.33933228 8.58868034 136.56864098 17.02345735 135.40625 25.5390625 C135.17887146 27.23209 135.17887146 27.23209 134.94689941 28.95932007 C134.62930871 31.31735955 134.3099159 33.67515698 133.98876953 36.03271484 C133.49659098 39.65005513 133.01159009 43.26830895 132.52734375 46.88671875 C132.21656829 49.1875571 131.90538526 51.48834045 131.59375 53.7890625 C131.44893188 54.87023346 131.30411377 55.95140442 131.15490723 57.06533813 C130.94964417 58.56367691 130.94964417 58.56367691 130.74023438 60.09228516 C130.56155823 61.40913803 130.56155823 61.40913803 130.37927246 62.75259399 C130 65 130 65 129 68 C126.62890625 69.02734375 126.62890625 69.02734375 123.5625 69.9375 C119.72712929 71.13182813 115.96638879 72.34919132 112.25 73.875 C100.17178889 78.81978807 87.89143854 83.11696852 75.49398804 87.18078613 C64.44201578 90.80672328 53.41576681 94.46456352 42.52832031 98.56274414 C33.80188545 101.84661838 24.98320415 104.86154207 16.16943359 107.90136719 C12.73045531 109.0934333 9.29666354 110.29972779 5.86328125 111.5078125 C4.08546265 112.13067139 4.08546265 112.13067139 2.27172852 112.76611328 C-0.04019674 113.57612855 -2.35095015 114.38949786 -4.66040039 115.20654297 C-5.70574951 115.57150879 -6.75109863 115.93647461 -7.828125 116.3125 C-8.7552832 116.63863281 -9.68244141 116.96476562 -10.63769531 117.30078125 C-13 118 -13 118 -16 118 C-12.43301452 90.28908425 -8.83503427 62.5822994 -5.15722656 34.88586426 C-4.80237216 32.21338986 -4.44858081 29.5407781 -4.09570312 26.86804199 C-3.59997288 23.11744515 -3.10121245 19.3672639 -2.6015625 15.6171875 C-2.45393463 14.49667999 -2.30630676 13.37617249 -2.15420532 12.22171021 C-2.01646698 11.19318939 -1.87872864 10.16466858 -1.73681641 9.10498047 C-1.61803131 8.21084442 -1.49924622 7.31670837 -1.37686157 6.39547729 C-1 4 -1 4 0 0 Z " fill="#EDBB30" transform="translate(236,23)"/>
<path d="M0 0 C-0.51259941 12.65545183 -2.25005854 25.11390675 -4.01123047 37.64648438 C-4.50374022 41.15161871 -4.98883747 44.65771892 -5.47265625 48.1640625 C-5.78343155 50.40370452 -6.09461457 52.64329 -6.40625 54.8828125 C-6.55106812 55.925513 -6.69588623 56.9682135 -6.84509277 58.04251099 C-7.05035583 59.50090897 -7.05035583 59.50090897 -7.25976562 60.98876953 C-7.43844177 62.26326462 -7.43844177 62.26326462 -7.62072754 63.56350708 C-8.00930878 66.05980072 -8.48679484 68.52658446 -9 71 C-19.7095261 71.3260096 -30.41785165 71.57393621 -41.13134956 71.72537041 C-46.10775487 71.79809867 -51.08073949 71.89652169 -56.05517578 72.05615234 C-60.86659539 72.20956525 -65.67475161 72.29223293 -70.48843002 72.3282814 C-72.31391641 72.35392703 -74.13924641 72.40401287 -75.96332169 72.48022079 C-91.09336136 73.08653505 -91.09336136 73.08653505 -97.16204834 67.75494385 C-99.67962102 65.27649121 -101.91257097 62.65183807 -104.14328003 59.91677856 C-105.5180173 58.22054119 -105.5180173 58.22054119 -107 57 C-109.74279264 56.85606907 -109.74279264 56.85606907 -112 58 C-112.64356445 58.20351074 -113.28712891 58.40702148 -113.95019531 58.61669922 C-114.56991211 58.84373535 -115.18962891 59.07077148 -115.828125 59.3046875 C-145.8240757 70.01288997 -178.19763391 70.78124785 -208 59 C-194.5986887 45.5986887 -156.83949081 42.8594173 -138.1159668 38.14550781 C-130.82607794 36.30217195 -123.60894571 34.32130552 -116.43457031 32.0625 C-109.36810583 29.87645697 -102.23991817 27.89652127 -95.125 25.875 C-93.55725585 25.42851114 -91.98954733 24.98189718 -90.421875 24.53515625 C-87.5485583 23.71651493 -84.6750389 22.89859375 -81.80126953 22.08154297 C-79.27991068 21.36416213 -76.7649779 20.62377344 -74.25732422 19.85986328 C-71 19 -71 19 -67 19 C-68.86250992 23.09752183 -71.53008632 26.29993731 -74.34375 29.78125 C-75.85417774 31.80465319 -76.90941273 33.73566521 -78 36 C-77.38294189 36.65464233 -77.38294189 36.65464233 -76.75341797 37.32250977 C-68.56704303 46.00932709 -60.39196864 54.70621071 -52.25537109 63.43969727 C-49.660174 66.25099544 -49.660174 66.25099544 -47 69 C-45.48676812 62.58784226 -44.39723102 56.23929274 -43.5625 49.70703125 C-43.30477917 47.75845142 -43.04696388 45.80988407 -42.7890625 43.86132812 C-42.39224155 40.82682945 -41.99735846 37.79209331 -41.60449219 34.75708008 C-41.22051435 31.80221338 -40.82936042 28.84836137 -40.4375 25.89453125 C-40.322854 24.99128616 -40.20820801 24.08804108 -40.09008789 23.15742493 C-38.86000201 13.93150797 -38.86000201 13.93150797 -37 10 C-35.06738281 8.83154297 -35.06738281 8.83154297 -32.703125 8.2421875 C-31.83276611 8.01096191 -30.96240723 7.77973633 -30.06567383 7.54150391 C-28.67191528 7.21158447 -28.67191528 7.21158447 -27.25 6.875 C-25.34240546 6.38037203 -23.4348535 5.88557983 -21.52734375 5.390625 C-20.1194458 5.03967773 -20.1194458 5.03967773 -18.68310547 4.68164062 C-15.03016831 3.7536151 -11.42687887 2.6931411 -7.8125 1.625 C-2.24390244 0 -2.24390244 0 0 0 Z " fill="#9E1738" transform="translate(256,146)"/>
<path d="M0 0 C0.11356633 5.76121223 -0.28509564 11.22203612 -1.08569336 16.92285156 C-1.20112991 17.77590881 -1.31656647 18.62896606 -1.4355011 19.50787354 C-1.81508938 22.30286071 -2.20231469 25.0967287 -2.58984375 27.890625 C-2.85689525 29.84253508 -3.12353624 31.79450136 -3.38978577 33.746521 C-3.9472412 37.82528867 -4.50823236 41.90354838 -5.07202148 45.98144531 C-5.79459767 51.20847065 -6.51050183 56.43638175 -7.22405148 61.66464615 C-7.7737954 65.69001777 -8.32594436 69.71505634 -8.87893867 73.7399826 C-9.14375871 75.66804093 -9.40808839 77.59616667 -9.67191887 79.52436066 C-10.04063788 82.21480279 -10.41232405 84.90481787 -10.78491211 87.59472656 C-10.94783249 88.78859985 -10.94783249 88.78859985 -11.11404419 90.0065918 C-11.58826369 93.40939964 -12.16534728 96.66138913 -13 100 C-25.21 100 -37.42 100 -50 100 C-48.42590482 83.76875621 -46.27315527 67.631611 -44.05883789 51.47827148 C-43.53434749 47.65139203 -43.01584521 43.82372675 -42.4988699 39.99582577 C-42.09733812 37.0281796 -41.69249049 34.06099312 -41.28663826 31.09393501 C-41.09377657 29.68065713 -40.90200839 28.26722958 -40.71136284 26.85365105 C-40.44698154 24.89667924 -40.17759711 22.94038529 -39.90795898 20.98413086 C-39.75632797 19.87339706 -39.60469696 18.76266327 -39.44847107 17.61827087 C-39 15 -39 15 -38 13 C-39.65 13 -41.3 13 -43 13 C-40.0721169 11.04807793 -38.04887221 10.32349277 -34.6953125 9.4140625 C-33.642229 9.12474854 -32.58914551 8.83543457 -31.50415039 8.53735352 C-30.38903076 8.23627686 -29.27391113 7.9352002 -28.125 7.625 C-25.8551022 7.00263742 -23.58556685 6.37895135 -21.31640625 5.75390625 C-20.22602051 5.45371582 -19.13563477 5.15352539 -18.01220703 4.84423828 C-13.36125519 3.54070518 -8.75829639 2.10798498 -4.16015625 0.62890625 C-2 0 -2 0 0 0 Z " fill="#EEBB30" transform="translate(361,117)"/>
<path d="M0 0 C-0.51259941 12.65545183 -2.25005854 25.11390675 -4.01123047 37.64648438 C-4.50374022 41.15161871 -4.98883747 44.65771892 -5.47265625 48.1640625 C-5.78343155 50.40370452 -6.09461457 52.64329 -6.40625 54.8828125 C-6.55106812 55.925513 -6.69588623 56.9682135 -6.84509277 58.04251099 C-7.05035583 59.50090897 -7.05035583 59.50090897 -7.25976562 60.98876953 C-7.37888306 61.83843292 -7.49800049 62.68809631 -7.62072754 63.56350708 C-8.00850132 66.05461355 -8.50557026 68.5278513 -9 71 C-21.21 71 -33.42 71 -46 71 C-44.87827844 59.17093628 -43.44348895 47.40339775 -41.83383179 35.63220215 C-41.61200264 34.00771275 -41.39212048 32.38295625 -41.17422485 30.75793457 C-40.86182649 28.43539671 -40.54143035 26.11409786 -40.21875 23.79296875 C-40.12603317 23.09666855 -40.03331635 22.40036835 -39.93778992 21.68296814 C-39.35915941 17.60359036 -38.71067049 13.76284461 -37 10 C-35.06738281 8.83154297 -35.06738281 8.83154297 -32.703125 8.2421875 C-31.39758667 7.89534912 -31.39758667 7.89534912 -30.06567383 7.54150391 C-29.13650146 7.32155762 -28.2073291 7.10161133 -27.25 6.875 C-25.34240546 6.38037203 -23.4348535 5.88557983 -21.52734375 5.390625 C-20.1194458 5.03967773 -20.1194458 5.03967773 -18.68310547 4.68164062 C-15.03016831 3.7536151 -11.42687887 2.6931411 -7.8125 1.625 C-2.24390244 0 -2.24390244 0 0 0 Z " fill="#EEBB30" transform="translate(256,146)"/>
<path d="" fill="#FF0000" transform="translate(0,0)"/>
<path d="" fill="#FF0000" transform="translate(0,0)"/>
</svg>
